<?xml version="1.0" encoding="UTF-8"?>
<svg width="1200pt" height="1200pt" version="1.1" viewBox="0 0 1200 1200" xmlns="http://www.w3.org/2000/svg">
 <path d="m1093.8 266.76-1.8008-0.96094h-17.762l-3.3594 0.60156h-1.9219l-6.6016 2.1602c-55.922 20.762-135.84 114.36-170.16 91.199-27-18.238 13.199-82.32-23.039-156.96-3.1211-6.4805-39.238-78.121-108-87.719-65.996-9.4805-125.16 39.477-151.92 84.719-37.559 62.762-13.922 118.08-39.238 129.24-41.16 18.121-118.56-124.2-175.2-140.52-2.8906-0.83594-5.875-1.3203-8.8789-1.4414h-7.3203l-2.5195 0.60156h-0.003906c-2.0117 0.66016-3.9453 1.543-5.7578 2.6406-5.2461 3.5078-9.6016 8.1914-12.719 13.68l-1.3203 2.1602-1.9219 3.3594-1.8008 3.7188-1.8008 4.0781c-1.3203 3.3594-2.6406 6.8398-3.7188 10.441-1.0781 3.6016-3.1211 11.16-4.4414 17.281v1.3203h0.003906c-6.5703 41.016-9.1406 82.57-7.6797 124.08v7.8008 7.5586c0.58594 20.07 2.2305 40.098 4.918 60l0.83984 5.7617c0.55859 3.8398 1.1602 7.5586 1.8008 11.16 0.64062 3.6016 1.2812 7.1602 1.9219 10.68 0.71875 3.4414 1.4414 6.8008 2.1602 10.078 2.5195 12 5.2812 22.078 8.0391 31.922 2.7617 9.8398 4.8008 16.441 7.1992 24l2.3984 7.5586 2.2812 7.3203 1.0781 3.6016 2.1602 7.1992 0.96094 3.6016c0.96094 3.6016 1.9219 7.0781 2.7617 10.68v-0.003906c7.4297 29.004 8.2891 59.301 2.5195 88.68-1.1992 6.7188-2.7617 13.68-4.5586 20.879-2.3984 9.4805-5.3984 19.441-8.8789 29.398-1.7617 5.0391-3.6406 10.121-5.6406 15.238-4.0781 10.199-8.6406 20.52-13.68 30.84l-3.9609 7.8008-0.003907 0.003907c-24.914 49.414-61.086 92.285-105.6 125.16-10.199 7.3203-20.762 13.801-31.441 20.398l-14.398 9.1211c-6 3.9609-12 8.1602-18.238 12.719l-0.003906 0.003906c-19.77 14.574-37.352 31.91-52.199 51.477l-2.8789 3.8398-0.60156 1.082-1.9219 2.6406-1.0781 1.5586-1.6797 2.3984-1.1992 1.6797-1.5586 2.2812-1.1992 1.8008-1.4414 2.1602-1.1992 1.8008-1.4414 2.1602-1.1992 1.8008-1.3203 2.1602-1.0781 1.8008-1.5625 2.5195-1.0781 1.8008-1.1992 2.1602-1.0781 1.8008-1.1992 2.0391-0.48437 1.4375-1.0781 2.0391-0.96094 1.8008-1.0781 2.0391-0.96094 1.8008-0.96094 1.9219-1.082 2.3984-3.3594 7.2031v1.1992l-1.9219 4.1992v1.3203l-0.83984 1.9219v1.3203l-0.71875 1.9219v1.3203l-0.71875 1.8008v1.1992l-0.60156 1.6797v14.754 1.0781 0 0.96094 0.96094 0.83984c0.20312 0.57812 0.58203 1.082 1.082 1.4414 7.8008 5.2812 41.281-37.199 57.719-50.762 27.84-22.922 71.281-35.16 123.48-42.48 53.879-7.5586 117.24-9.9609 182.4-13.441h69.359l8.8789-0.71875h21.242l8.8789-0.83984h1.4414l7.4414-0.83984h3l6.1211-0.71875h3l7.0781-0.83984h1.8008l8.7617-1.1992h2.3984l6.4805-0.96094h3l-0.24219-7.9219h2.6406l8.6406-1.4414h0.83984l7.8008-1.4414h2.7617l6-1.1992h2.8789l6.6016-1.3203h1.9219l8.2812-1.8008h2.0391l6.2383-1.5586 3.3555-3.2383 5.7617-1.4414 2.5195-0.60156 8.0391-2.2812v0.003906c51.691-14.895 100.75-37.727 145.44-67.68l9.3594-6.3594c6.1602-4.2383 12.199-8.6016 18.121-13.078l8.7617-6.7188-0.003906-0.003907c25.016-19.695 48.52-41.234 70.32-64.438l6.8398-7.4414c4.5586-4.9609 8.9609-9.9219 13.199-14.879 13.922-16.078 26.641-32.281 38.16-48l5.1602-7.1992 9.9609-14.16 9.2383-13.801 6.4805-10.078c5.6406-8.8789 10.68-17.398 15.48-25.559l1.8008-3c6.3594-11.039 12-21.238 16.559-30.359l1.3203-2.5195 3.6016-7.0781 1.0781-2.2812 4.0781-8.3984 0.96094-1.9219 1.6797-3.7188c3-6.4805 5.2812-12 6.8398-15.238 56.523-130.81 69.242-288.61 23.043-311.41zm-447.48 0.60156c12.719-34.32 42.84-54.84 67.078-45.84 24.238 9 33.719 44.16 21 78.602s-42.84 54.84-67.078 45.84c-24.242-9.0039-33.719-44.285-21-78.605zm161.28 233.88c-15.602 2.7617-21.602-57.238-52.68-61.199-40.801-5.8789-74.52 89.879-94.68 82.922-15.359-5.2812-17.039-68.398 12-116.64 4.4414-7.3203 39.602-65.762 87-60h-0.003907c19.008 3.6016 35.824 14.555 46.801 30.48 35.883 46.918 18.242 121.8 1.5625 124.44zm19.32-167.04c-20.52 4.1992-42.238-17.16-48-48-5.7617-30.84 5.0391-58.199 25.078-62.398s42.238 17.16 48 48c5.7617 30.84-4.4414 58.199-24.961 62.398z" fill="#ffb222"/>
</svg>
