<?xml version="1.0" encoding="UTF-8"?>
<svg width="1200pt" height="1200pt" version="1.1" viewBox="0 0 1200 1200" xmlns="http://www.w3.org/2000/svg">
 <g fill="#9b9b9b">
  <path d="m891.55 346.21c-3.6016-17.027-18.695-29.797-36.781-29.797-17.344 0-31.805 11.797-36.164 27.75h-159.39v-159.57c15.637-4.5742 27.133-18.848 27.133-35.961 0-18.102-12.809-33.195-29.797-36.797-6.707-25.328-29.711-44.008-57.184-44.008-27.438 0-50.449 18.684-57.156 44.008-17.027 3.6016-29.797 18.695-29.797 36.797 0 17.57 12.113 32.199 28.371 36.34v159.2h-159.39c-4.3711-15.965-18.797-27.75-36.164-27.75-18.09 0-33.184 12.781-36.781 29.797-25.34 6.707-44.008 29.734-44.008 57.172s18.684 50.449 44.008 57.156c3.6016 17.027 18.695 29.797 36.781 29.797 17.367 0 31.805-11.797 36.164-27.75h159.37v432.44h-143.43c-12.191 0-22.055 9.8906-22.055 22.066v55.148h449.43v-55.148c0-12.176-9.8672-22.066-22.055-22.066h-143.44v-432.43h159.37c4.3711 15.965 18.82 27.75 36.164 27.75 18.09 0 33.184-12.781 36.781-29.797 25.312-6.707 44.008-29.734 44.008-57.156 0.015625-27.449-18.68-50.477-43.992-57.184z"/>
  <path d="m513.71 983.29h-222.53v148.89h617.63v-148.89z"/>
 </g>
</svg>
