<?xml version="1.0" encoding="UTF-8"?>
<svg width="1200pt" height="1200pt" version="1.1" viewBox="0 0 1200 1200" xmlns="http://www.w3.org/2000/svg">
 <path d="m1200 591.96c0.87109 20.25-6.8359 39.93-21.227 54.207-14.387 14.277-34.129 21.824-54.375 20.793h-82.199v21.238 334.32c0.66016 30.965-11.332 60.855-33.211 82.777-21.875 21.922-51.742 33.977-82.707 33.383h-169.08c-33.961 0-51.719-17.879-51.719-52.32v-196.44c0-52.68-26.281-90.359-72-106.2-64.199-22.32-135.36 23.039-137.88 90.961-2.5195 67.922-1.9219 138.72-0.83984 208.08 0 34.199-18.719 57.602-56.281 56.398-55.441-1.8008-111 0-166.44 0l-0.003907 0.003906c-30.273 0.16016-59.363-11.754-80.828-33.105-21.465-21.352-33.531-50.379-33.531-80.656v-331.68-26.758h-78.48c-51 0-79.922-29.398-79.078-80.281-0.41016-22.039 0.99609-44.07 4.1992-65.879 5.4766-26.668 20.816-50.281 42.961-66.121 155.76-120.96 311.44-242 467.04-363.12 24.098-19.941 54.398-30.852 85.68-30.852s61.582 10.91 85.68 30.852c154.88 120.64 309.84 241.2 464.88 361.68 32.055 23.48 50.535 61.203 49.441 100.92v37.801z" fill="#ffb222"/>
</svg>
