<?xml version="1.0" encoding="UTF-8"?>
<svg width="1200pt" height="1200pt" version="1.1" viewBox="0 0 1200 1200" xmlns="http://www.w3.org/2000/svg">
 <g fill="#ddc8fd">
  <path d="m622.97 358.59c-11.961 12.613-33.973 12.613-45.934 0-14.973-15.785-34.762-24.48-55.707-24.48-20.945 0-40.734 8.707-55.707 24.48-31.973 33.719-31.973 88.613 0 122.33l118.01 124.44c8.9336 9.4258 23.801 9.4414 32.734-0.011719l118.01-124.43c31.973-33.719 31.973-88.613 0-122.33-29.957-31.562-81.461-31.562-111.41-0.003906z"/>
  <path d="m979.85 125.17h-759.7c-52.359 0-94.961 42.602-94.961 94.961v506.48c0 52.359 42.602 94.961 94.961 94.961h172.39l132.2 211.51c16.32 26.133 44.453 41.734 75.266 41.734s58.945-15.602 75.266-41.734l92.625-148.2-167.89-0.003906c-17.48 0-31.652-14.172-31.652-31.652 0-17.48 14.172-31.652 31.652-31.652h379.85c52.359 0 94.961-42.602 94.961-94.961v-506.46c0.015625-52.375-42.586-94.977-94.961-94.977zm-199.53 399.31-118.01 124.44c-16.559 17.453-38.668 27.066-62.309 27.066s-45.746-9.6133-62.309-27.055l-118.01-124.45c-54.762-57.746-54.762-151.71 0-209.45 27.055-28.535 63.16-44.238 101.64-44.238 28.426 0 55.535 8.5586 78.668 24.535 23.133-15.961 50.254-24.535 78.668-24.535 38.48 0 74.586 15.707 101.64 44.238 54.781 57.746 54.781 151.71 0.023437 209.45z"/>
 </g>
</svg>
